<svg width="12" height="12" viewBox="0 0 12 12" fill="none" xmlns="http://www.w3.org/2000/svg">
<path fill-rule="evenodd" clip-rule="evenodd" d="M7.58182 0.213023C6.69172 -0.0291093 5.7578 -0.0629408 4.85251 0.114152C3.94722 0.291246 3.09489 0.674503 2.36165 1.2342C1.6284 1.79389 1.03394 2.51497 0.624379 3.34151C0.214819 4.16805 0.00116951 5.07783 2.17859e-06 6.00027C-0.000727649 6.85675 0.18192 7.70346 0.535665 8.48348C0.88941 9.2635 1.40605 9.95875 2.05086 10.5225C2.69567 11.0862 3.4537 11.5053 4.27398 11.7517C5.09426 11.9981 5.95779 12.066 6.8065 11.9509C7.65522 11.8358 8.46945 11.5403 9.19445 11.0843C9.91946 10.6283 10.5384 10.0224 11.0098 9.30722C11.4811 8.59209 11.7939 7.78434 11.927 6.93827C12.0602 6.09221 12.0107 5.22743 11.7818 4.40209C11.4873 4.62028 11.1491 4.78937 10.7836 4.893C10.9481 5.61264 10.9486 6.36007 10.785 7.07991C10.6213 7.79975 10.2978 8.47354 9.83841 9.05135C9.37898 9.62917 8.79542 10.0962 8.13097 10.4178C7.46651 10.7395 6.7382 10.9074 6 10.9093C5.31006 10.9076 4.62822 10.7605 3.99897 10.4776C3.36971 10.1946 2.80716 9.78219 2.34801 9.26722C1.88886 8.75224 1.54342 8.14626 1.33421 7.4888C1.12501 6.83134 1.05674 6.13716 1.13387 5.45154C1.21099 4.76592 1.43177 4.10426 1.78181 3.50971C2.13184 2.91515 2.60328 2.40106 3.16536 2.00096C3.72745 1.60085 4.36756 1.32373 5.04395 1.18765C5.72035 1.05157 6.41783 1.05959 7.09091 1.2112C7.19455 0.845747 7.36364 0.507567 7.58182 0.213023Z" fill="#414651"/>
<path d="M11.9999 2.00181C11.9999 2.53272 11.789 3.04189 11.4136 3.4173C11.0382 3.79271 10.529 4.00362 9.9981 4.00362C9.46719 4.00362 8.95802 3.79271 8.5826 3.4173C8.20719 3.04189 7.99629 2.53272 7.99629 2.00181C7.99629 1.4709 8.20719 0.961728 8.5826 0.586316C8.95802 0.210904 9.46719 0 9.9981 0C10.529 0 11.0382 0.210904 11.4136 0.586316C11.789 0.961728 11.9999 1.4709 11.9999 2.00181ZM6.54538 5.77634V2.72726H5.45447V6.22361L7.79992 8.56905L8.56901 7.79451L6.55083 5.77634H6.54538Z" fill="#414651"/>
</svg>
