<svg width="24" height="24" viewBox="0 0 24 24" fill="none" xmlns="http://www.w3.org/2000/svg">
<g clip-path="url(#clip0_333_21691)">
<path d="M3 4C3 3.73478 3.10536 3.48043 3.29289 3.29289C3.48043 3.10536 3.73478 3 4 3H20C20.2652 3 20.5196 3.10536 20.7071 3.29289C20.8946 3.48043 21 3.73478 21 4V16C21 16.2652 20.8946 16.5196 20.7071 16.7071C20.5196 16.8946 20.2652 17 20 17H4C3.73478 17 3.48043 16.8946 3.29289 16.7071C3.10536 16.5196 3 16.2652 3 16V4Z" stroke="#1C9CDB" stroke-width="2" stroke-linecap="round" stroke-linejoin="round"/>
<path d="M3 13H21" stroke="#1C9CDB" stroke-width="2" stroke-linecap="round" stroke-linejoin="round"/>
<path d="M8 21H16" stroke="#1C9CDB" stroke-width="2" stroke-linecap="round" stroke-linejoin="round"/>
<path d="M10 17L9.5 21" stroke="#1C9CDB" stroke-width="2" stroke-linecap="round" stroke-linejoin="round"/>
<path d="M14 17L14.5 21" stroke="#1C9CDB" stroke-width="2" stroke-linecap="round" stroke-linejoin="round"/>
</g>
<defs>
<clipPath id="clip0_333_21691">
<rect width="24" height="24" fill="white"/>
</clipPath>
</defs>
</svg>
