<svg width="49" height="49" viewBox="0 0 49 49" fill="none" xmlns="http://www.w3.org/2000/svg">
<rect width="49" height="49" rx="24.5" transform="matrix(-1 0 0 1 49 0)" fill="#0B7F7F" fill-opacity="0.2"/>
<g clip-path="url(#clip0_331_14731)">
<path d="M36.9769 35.8427H35.8426V26.7686C35.8408 25.2651 35.2427 23.8236 34.1795 22.7604C33.1164 21.6972 31.6749 21.0991 30.1713 21.0973H25.6343V17.7388C26.1396 17.5183 26.5696 17.1552 26.8718 16.6941C27.174 16.233 27.3352 15.6938 27.3357 15.1425C27.0293 13.6926 26.339 12.3517 25.3371 11.2599C25.2308 11.1437 25.1015 11.0509 24.9574 10.9874C24.8133 10.9238 24.6575 10.8911 24.5 10.8911C24.3425 10.8911 24.1868 10.9238 24.0427 10.9874C23.8985 11.0509 23.7692 11.1437 23.6629 11.2599C22.661 12.3517 21.9708 13.6926 21.6644 15.1425C21.6649 15.6938 21.8261 16.233 22.1283 16.6941C22.4304 17.1552 22.8605 17.5183 23.3658 17.7388V21.0973H18.8287C17.3252 21.0991 15.8837 21.6972 14.8205 22.7604C13.7573 23.8236 13.1592 25.2651 13.1574 26.7686V35.8427H12.0232C11.7224 35.8427 11.4338 35.9622 11.2211 36.1749C11.0084 36.3876 10.8889 36.6761 10.8889 36.977C10.8889 37.2778 11.0084 37.5663 11.2211 37.779C11.4338 37.9917 11.7224 38.1112 12.0232 38.1112H36.9769C37.2777 38.1112 37.5662 37.9917 37.7789 37.779C37.9916 37.5663 38.1111 37.2778 38.1111 36.977C38.1111 36.6761 37.9916 36.3876 37.7789 36.1749C37.5662 35.9622 37.2777 35.8427 36.9769 35.8427ZM18.8287 23.3659H30.1713C31.0738 23.3659 31.9393 23.7244 32.5775 24.3625C33.2156 25.0007 33.5741 25.8662 33.5741 26.7686V29.0145C32.5124 28.901 31.8727 28.2205 31.8727 27.9029C31.8727 27.6021 31.7532 27.3136 31.5405 27.1009C31.3278 26.8881 31.0393 26.7686 30.7385 26.7686C30.4376 26.7686 30.1491 26.8881 29.9364 27.1009C29.7237 27.3136 29.6042 27.6021 29.6042 27.9029C29.6042 28.2919 28.8306 29.0372 27.6192 29.0372C26.384 29.0372 25.6343 28.25 25.6343 27.9029C25.6343 27.6021 25.5148 27.3136 25.3021 27.1009C25.0894 26.8881 24.8009 26.7686 24.5 26.7686C24.1992 26.7686 23.9107 26.8881 23.698 27.1009C23.4853 27.3136 23.3658 27.6021 23.3658 27.9029C23.3658 28.2919 22.5922 29.0372 21.3808 29.0372C20.1456 29.0372 19.3959 28.25 19.3959 27.9029C19.3959 27.6021 19.2764 27.3136 19.0636 27.1009C18.8509 26.8881 18.5624 26.7686 18.2616 26.7686C17.9608 26.7686 17.6723 26.8881 17.4596 27.1009C17.2468 27.3136 17.1273 27.6021 17.1273 27.9029C17.1273 28.2602 16.4706 28.9101 15.426 29.0156V26.7686C15.426 25.8662 15.7845 25.0007 16.4226 24.3625C17.0607 23.7244 17.9263 23.3659 18.8287 23.3659ZM15.426 31.2819C16.468 31.2356 17.4653 30.8451 18.2616 30.1714C19.1365 30.9007 20.2387 31.3016 21.3777 31.3047C22.5168 31.3078 23.6211 30.913 24.5 30.1884C25.3789 30.913 26.4833 31.3078 27.6223 31.3047C28.7613 31.3016 29.8635 30.9007 30.7385 30.1714C31.5349 30.8447 32.5322 31.2348 33.5741 31.2807V35.8427H15.426V31.2819Z" fill="#0B7F7F"/>
</g>
<defs>
<clipPath id="clip0_331_14731">
<rect width="27.2222" height="27.2222" fill="white" transform="translate(10.8889 10.8889)"/>
</clipPath>
</defs>
</svg>
