<svg width="16" height="16" viewBox="0 0 16 16" fill="none" xmlns="http://www.w3.org/2000/svg">
<path fill-rule="evenodd" clip-rule="evenodd" d="M9.99969 4.00001C9.99991 4.41378 9.87179 4.81743 9.63299 5.15533C9.39419 5.49324 9.05647 5.74876 8.66636 5.88668V7.33334H10.6664C11.1968 7.33334 11.7055 7.54406 12.0806 7.91913C12.4556 8.2942 12.6664 8.80291 12.6664 9.33334V10.1133C13.1114 10.2706 13.4864 10.5801 13.7253 10.9872C13.9641 11.3943 14.0514 11.8727 13.9716 12.3379C13.8918 12.803 13.6501 13.225 13.2893 13.5293C12.9284 13.8335 12.4717 14.0003 11.9997 14.0003C11.5277 14.0003 11.071 13.8335 10.7101 13.5293C10.3493 13.225 10.1076 12.803 10.0278 12.3379C9.94804 11.8727 10.0353 11.3943 10.2741 10.9872C10.513 10.5801 10.888 10.2706 11.333 10.1133V9.33334C11.333 9.15653 11.2628 8.98696 11.1378 8.86194C11.0127 8.73692 10.8432 8.66668 10.6664 8.66668H5.33303C5.15622 8.66668 4.98665 8.73692 4.86162 8.86194C4.7366 8.98696 4.66636 9.15653 4.66636 9.33334V10.1133C5.11136 10.2706 5.48642 10.5801 5.72527 10.9872C5.96411 11.3943 6.05135 11.8727 5.97157 12.3379C5.89179 12.803 5.65011 13.225 5.28928 13.5293C4.92844 13.8335 4.47166 14.0003 3.99969 14.0003C3.52773 14.0003 3.07095 13.8335 2.71011 13.5293C2.34927 13.225 2.1076 12.803 2.02782 12.3379C1.94804 11.8727 2.03528 11.3943 2.27412 10.9872C2.51296 10.5801 2.88803 10.2706 3.33303 10.1133V9.33334C3.33303 8.80291 3.54374 8.2942 3.91881 7.91913C4.29389 7.54406 4.80259 7.33334 5.33303 7.33334H7.33303V5.88668C6.98713 5.76457 6.68146 5.54971 6.44943 5.26559C6.21741 4.98147 6.06796 4.63903 6.01743 4.27571C5.9669 3.91238 6.01724 3.54216 6.16293 3.20551C6.30862 2.86886 6.54406 2.57875 6.84351 2.36688C7.14297 2.15502 7.4949 2.02956 7.86085 2.00423C8.2268 1.97889 8.59266 2.05466 8.91846 2.22323C9.24425 2.39181 9.51742 2.64671 9.70811 2.96007C9.89881 3.27343 9.99967 3.63319 9.99969 4.00001ZM7.99969 3.33335C7.82288 3.33335 7.65331 3.40358 7.52829 3.52861C7.40327 3.65363 7.33303 3.8232 7.33303 4.00001C7.33303 4.17682 7.40327 4.34639 7.52829 4.47142C7.65331 4.59644 7.82288 4.66668 7.99969 4.66668C8.17651 4.66668 8.34607 4.59644 8.4711 4.47142C8.59612 4.34639 8.66636 4.17682 8.66636 4.00001C8.66636 3.8232 8.59612 3.65363 8.4711 3.52861C8.34607 3.40358 8.17651 3.33335 7.99969 3.33335ZM3.99969 11.3333C3.82288 11.3333 3.65331 11.4036 3.52829 11.5286C3.40327 11.6536 3.33303 11.8232 3.33303 12C3.33303 12.1768 3.40327 12.3464 3.52829 12.4714C3.65331 12.5964 3.82288 12.6667 3.99969 12.6667C4.17651 12.6667 4.34607 12.5964 4.4711 12.4714C4.59612 12.3464 4.66636 12.1768 4.66636 12C4.66636 11.8232 4.59612 11.6536 4.4711 11.5286C4.34607 11.4036 4.17651 11.3333 3.99969 11.3333ZM11.9997 11.3333C11.8229 11.3333 11.6533 11.4036 11.5283 11.5286C11.4033 11.6536 11.333 11.8232 11.333 12C11.333 12.1768 11.4033 12.3464 11.5283 12.4714C11.6533 12.5964 11.8229 12.6667 11.9997 12.6667C12.1765 12.6667 12.3461 12.5964 12.4711 12.4714C12.5961 12.3464 12.6664 12.1768 12.6664 12C12.6664 11.8232 12.5961 11.6536 12.4711 11.5286C12.3461 11.4036 12.1765 11.3333 11.9997 11.3333Z" fill="#F79009"/>
</svg>
