<svg width="28" height="28" viewBox="0 0 28 28" fill="none" xmlns="http://www.w3.org/2000/svg">
<path d="M23.3233 11.6616C23.3233 17.4843 16.8639 23.5483 14.6948 25.4212C14.4928 25.5731 14.2468 25.6553 13.994 25.6553C13.7411 25.6553 13.4952 25.5731 13.2931 25.4212C11.124 23.5483 4.66467 17.4843 4.66467 11.6616C4.66467 9.18735 5.64758 6.8144 7.39716 5.06482C9.14674 3.31524 11.5197 2.33234 13.994 2.33234C16.4682 2.33234 18.8412 3.31524 20.5908 5.06482C22.3404 6.8144 23.3233 9.18735 23.3233 11.6616Z" stroke="#4F39F6" stroke-width="2.33232" stroke-linecap="round" stroke-linejoin="round"/>
<path d="M13.994 15.1601C15.9261 15.1601 17.4925 13.5938 17.4925 11.6616C17.4925 9.72947 15.9261 8.16315 13.994 8.16315C12.0618 8.16315 10.4955 9.72947 10.4955 11.6616C10.4955 13.5938 12.0618 15.1601 13.994 15.1601Z" stroke="#4F39F6" stroke-width="2.33232" stroke-linecap="round" stroke-linejoin="round"/>
</svg>
